<mxfile host="app.diagrams.net" modified="2024-03-08T15:40:46.283Z" agent="Mozilla/5.0 (X11; Ubuntu; Linux x86_64; rv:109.0) Gecko/20100101 Firefox/116.0" version="24.0.1" etag="J3CZU-K-aaDNsL3wQYgz" type="github">
  <diagram name="Page-1" id="DfGXGSeiKtF_Vn_WUQW6">
    <mxGraphModel>
      <root>
        <mxCell id="0" />
        <mxCell id="1" parent="0" />
      </root>
    </mxGraphModel>
  </diagram>
</mxfile>
